<svg width="285" height="64" viewBox="0 0 285 64" fill="none" xmlns="http://www.w3.org/2000/svg">
<rect width="63.75" height="63.75" rx="12.5" fill="#024723"/>
<path d="M40.0178 33.1252L40.9615 26.9721H35.0573V22.9783C35.0573 21.2947 35.8818 19.6543 38.5264 19.6543H41.2104V14.4151C41.2104 14.4151 38.7753 14 36.4459 14C31.5824 14 28.4054 16.9463 28.4054 22.2816V26.9721H23V33.1252H28.4054V48H35.0573V33.1252H40.0178Z" fill="white"/>
<rect x="73.75" width="63.75" height="63.75" rx="12.5" fill="#024723"/>
<path d="M114.75 20.0698C113.649 20.0698 112.756 20.9625 112.756 22.0628C112.756 23.1641 113.649 24.0568 114.75 24.0568C115.851 24.0568 116.743 23.1641 116.743 22.0628C116.743 20.9625 115.851 20.0698 114.75 20.0698Z" fill="white"/>
<path d="M105.889 36.3631C102.931 36.3631 100.525 33.9569 100.525 31.0001C100.525 28.0423 102.931 25.6361 105.889 25.6361C108.846 25.6361 111.252 28.0423 111.252 31.0001C111.252 33.9569 108.846 36.3631 105.889 36.3631ZM105.889 22.6265C101.271 22.6265 97.5151 26.3828 97.5151 31.0001C97.5151 35.6165 101.271 39.3728 105.889 39.3728C110.505 39.3728 114.261 35.6165 114.261 31.0001C114.261 26.3828 110.505 22.6265 105.889 22.6265Z" fill="white"/>
<path d="M98.9619 17.199C95.0941 17.199 91.948 20.3451 91.948 24.2129V37.7871C91.948 41.6549 95.0941 44.801 98.9619 44.801H112.536C116.404 44.801 119.551 41.6549 119.551 37.7871V24.2129C119.551 20.3451 116.404 17.199 112.536 17.199H98.9619ZM112.536 48H98.9619C93.3299 48 88.75 43.4182 88.75 37.7871V24.2129C88.75 18.5808 93.3299 14 98.9619 14H112.536C118.167 14 122.749 18.5808 122.749 24.2129V37.7871C122.749 43.4182 118.167 48 112.536 48Z" fill="white"/>
<rect x="147.5" width="63.75" height="63.75" rx="12.5" fill="#024723"/>
<path d="M199.64 19.0755C198.327 19.6694 196.877 20.0288 195.462 20.2661C196.133 20.1537 197.12 18.9371 197.516 18.4451C198.12 17.6956 198.62 16.8403 198.902 15.9168C198.938 15.8448 198.966 15.7544 198.893 15.6997C198.803 15.6641 198.744 15.6824 198.672 15.7179C197.091 16.5645 195.458 17.1786 193.719 17.6139C193.574 17.6494 193.467 17.6139 193.376 17.5226C193.233 17.3602 193.097 17.2064 192.944 17.0806C192.213 16.4588 191.429 15.9706 190.544 15.6103C189.384 15.1375 188.115 14.9367 186.865 15.0174C185.647 15.0971 184.453 15.4392 183.374 16.0033C182.292 16.5684 181.326 17.3554 180.556 18.3039C179.762 19.286 179.175 20.4439 178.875 21.673C178.586 22.8588 178.609 24.0312 178.786 25.2295C178.813 25.4284 178.795 25.4553 178.615 25.4284C171.813 24.4155 166.174 21.9824 161.596 16.7654C161.397 16.5386 161.289 16.5386 161.127 16.7827C159.123 19.7856 160.095 24.6087 162.597 26.9794C162.931 27.2965 163.274 27.6117 163.643 27.9C163.508 27.9278 161.844 27.7481 160.359 26.9794C160.161 26.8535 160.06 26.9265 160.043 27.1514C160.025 27.4762 160.052 27.775 160.097 28.1268C160.481 31.1701 162.589 33.9847 165.476 35.0841C165.818 35.2282 166.198 35.3541 166.567 35.4175C165.909 35.5617 165.232 35.6645 163.346 35.5165C163.111 35.4723 163.022 35.5895 163.111 35.8154C164.529 39.6774 167.587 40.8277 169.879 41.4821C170.186 41.5359 170.493 41.5359 170.801 41.608C170.781 41.6359 170.763 41.6359 170.745 41.6628C169.986 42.8207 167.351 43.6827 166.124 44.1113C163.892 44.8916 161.462 45.2423 159.104 45.0098C158.727 44.9541 158.647 44.9589 158.546 45.0098C158.442 45.0742 158.531 45.1645 158.653 45.2625C159.132 45.5787 159.619 45.8583 160.116 46.1293C161.613 46.9231 163.175 47.5554 164.808 48.0061C173.241 50.3345 182.739 48.623 189.07 42.3326C194.042 37.3923 195.786 30.5791 195.786 23.7582C195.786 23.4911 196.101 23.3441 196.287 23.2028C197.582 22.2313 198.625 21.0676 199.59 19.7693C199.807 19.4772 199.809 19.2177 199.809 19.1111C199.809 19.0928 199.809 19.0755 199.809 19.0755C199.809 18.9659 199.807 18.9996 199.64 19.0755Z" fill="white"/>
<rect x="221.25" width="63.75" height="63.75" rx="12.5" fill="#024723"/>
<path d="M245.574 43.6923C245.988 43.5814 246.429 43.6426 246.797 43.8619C248.91 45.1208 251.314 45.7867 253.749 45.7867C261.258 45.7867 267.367 39.6779 267.367 32.1679C267.367 24.6589 261.258 18.5491 253.749 18.5491C246.24 18.5491 240.13 24.6589 240.13 32.1679C240.13 34.6472 240.819 37.089 242.123 39.2291C242.348 39.5992 242.412 40.0453 242.3 40.4638L242.206 40.8145C241.721 42.6246 243.377 44.281 245.187 43.7959L245.574 43.6923ZM244.046 47.3881C240.768 48.2657 237.723 45.2788 238.601 42.0012C238.897 40.8979 238.728 39.7331 238.283 38.6813C237.41 36.6215 236.957 34.4082 236.957 32.1679C236.957 22.909 244.489 15.375 253.749 15.375C263.008 15.375 270.542 22.909 270.542 32.1679C270.542 41.4278 263.008 48.9618 253.749 48.9618C251.558 48.9618 249.388 48.5253 247.364 47.6882C246.314 47.2538 245.144 47.0942 244.046 47.3881Z" fill="white"/>
<path fill-rule="evenodd" clip-rule="evenodd" d="M259.995 34.5039C259.303 34.0897 258.405 33.6284 257.59 33.9609C256.966 34.2175 256.567 35.1958 256.162 35.6945C255.954 35.9511 255.706 35.9905 255.387 35.8627C253.043 34.9277 251.246 33.3623 249.951 31.2058C249.732 30.8705 249.771 30.6062 250.036 30.2958C250.427 29.8355 250.918 29.3127 251.024 28.692C251.129 28.0721 250.838 27.3476 250.582 26.794C250.254 26.0887 249.888 25.0826 249.181 24.6828C248.531 24.3157 247.675 24.5214 247.096 24.9922C246.097 25.8071 245.614 27.0814 245.629 28.346C245.634 28.7054 245.678 29.0639 245.761 29.4098C245.963 30.243 246.348 31.0223 246.782 31.7613C247.109 32.3196 247.464 32.8616 247.848 33.3824C249.102 35.0862 250.662 36.5671 252.469 37.6741C253.372 38.2267 254.344 38.712 255.351 39.0445C256.48 39.4173 257.486 39.8055 258.706 39.574C259.982 39.3318 261.242 38.5419 261.748 37.3118C261.898 36.9467 261.973 36.5411 261.889 36.1568C261.715 35.3611 260.639 34.8883 259.995 34.5039Z" fill="white"/>
</svg>
