<svg width="371" height="83" viewBox="0 0 371 83" fill="none" xmlns="http://www.w3.org/2000/svg">
<rect width="82.875" height="82.875" rx="16.25" fill="#024723"/>
<path d="M52.0236 43.0629L53.2503 35.0639H45.5748V29.872C45.5748 27.6833 46.6467 25.5508 50.0847 25.5508H53.5738V18.7399C53.5738 18.7399 50.4082 18.2002 47.38 18.2002C41.0575 18.2002 36.9275 22.0304 36.9275 28.9663V35.0639H29.9004V43.0629H36.9275V62.4002H45.5748V43.0629H52.0236Z" fill="white"/>
<rect x="95.875" width="82.875" height="82.875" rx="16.25" fill="#024723"/>
<path d="M149.176 26.0908C147.745 26.0908 146.584 27.2514 146.584 28.6817C146.584 30.1133 147.745 31.2738 149.176 31.2738C150.606 31.2738 151.767 30.1133 151.767 28.6817C151.767 27.2514 150.606 26.0908 149.176 26.0908Z" fill="white"/>
<path d="M137.655 47.2722C133.81 47.2722 130.682 44.1441 130.682 40.3003C130.682 36.4552 133.81 33.3271 137.655 33.3271C141.499 33.3271 144.627 36.4552 144.627 40.3003C144.627 44.1441 141.499 47.2722 137.655 47.2722ZM137.655 29.4146C131.653 29.4146 126.77 34.2978 126.77 40.3003C126.77 46.3015 131.653 51.1848 137.655 51.1848C143.657 51.1848 148.54 46.3015 148.54 40.3003C148.54 34.2978 143.657 29.4146 137.655 29.4146Z" fill="white"/>
<path d="M128.651 22.3589C123.622 22.3589 119.532 26.4488 119.532 31.4769V49.1235C119.532 54.1516 123.622 58.2415 128.651 58.2415H146.297C151.325 58.2415 155.416 54.1516 155.416 49.1235V31.4769C155.416 26.4488 151.325 22.3589 146.297 22.3589H128.651ZM146.297 62.4002H128.651C121.329 62.4002 115.375 56.4439 115.375 49.1235V31.4769C115.375 24.1552 121.329 18.2002 128.651 18.2002H146.297C153.617 18.2002 159.574 24.1552 159.574 31.4769V49.1235C159.574 56.4439 153.617 62.4002 146.297 62.4002Z" fill="white"/>
<rect x="191.75" width="82.875" height="82.875" rx="16.25" fill="#024723"/>
<path d="M259.532 24.7981C257.825 25.5702 255.94 26.0374 254.1 26.346C254.973 26.1998 256.256 24.6183 256.771 23.9787C257.555 23.0042 258.206 21.8924 258.572 20.6919C258.62 20.5982 258.656 20.4808 258.561 20.4096C258.444 20.3633 258.367 20.3871 258.274 20.4333C256.219 21.5339 254.095 22.3321 251.834 22.8981C251.647 22.9443 251.507 22.898 251.389 22.7794C251.203 22.5682 251.026 22.3684 250.827 22.2047C249.876 21.3965 248.857 20.7618 247.708 20.2934C246.199 19.6787 244.55 19.4177 242.924 19.5226C241.341 19.6263 239.789 20.071 238.386 20.8043C236.979 21.5389 235.724 22.562 234.723 23.795C233.69 25.0717 232.928 26.5771 232.537 28.1749C232.162 29.7164 232.192 31.2405 232.422 32.7983C232.457 33.0569 232.433 33.0919 232.199 33.0569C223.356 31.7402 216.026 28.5771 210.074 21.795C209.816 21.5002 209.676 21.5001 209.465 21.8174C206.86 25.7213 208.123 31.9913 211.376 35.0732C211.811 35.4854 212.255 35.8952 212.736 36.2699C212.56 36.3062 210.396 36.0726 208.466 35.0732C208.209 34.9095 208.078 35.0045 208.055 35.2968C208.032 35.719 208.068 36.1076 208.125 36.5648C208.625 40.5211 211.366 44.1802 215.119 45.6093C215.563 45.7967 216.057 45.9603 216.537 46.0428C215.682 46.2302 214.801 46.3638 212.349 46.1715C212.044 46.114 211.928 46.2664 212.044 46.56C213.888 51.5807 217.863 53.076 220.843 53.9268C221.241 53.9967 221.641 53.9967 222.041 54.0904C222.016 54.1266 221.992 54.1266 221.968 54.1616C220.981 55.667 217.556 56.7875 215.961 57.3447C213.06 58.3591 209.901 58.8151 206.835 58.5127C206.345 58.4403 206.242 58.4465 206.109 58.5127C205.974 58.5964 206.09 58.7139 206.249 58.8413C206.871 59.2523 207.504 59.6158 208.15 59.9681C210.097 61 212.127 61.822 214.25 62.4079C225.212 65.4348 237.56 63.2099 245.791 55.0323C252.255 48.61 254.521 39.7528 254.521 30.8857C254.521 30.5384 254.931 30.3473 255.173 30.1636C256.856 28.9007 258.213 27.3878 259.467 25.7001C259.749 25.3203 259.752 24.983 259.752 24.8444C259.752 24.8206 259.752 24.7981 259.752 24.7981C259.752 24.6557 259.749 24.6995 259.532 24.7981Z" fill="white"/>
<rect x="287.625" width="82.875" height="82.875" rx="16.25" fill="#024723"/>
<path d="M319.246 56.7998C319.784 56.6557 320.357 56.7352 320.836 57.0203C323.583 58.6568 326.708 59.5226 329.873 59.5226C339.636 59.5226 347.577 51.581 347.577 41.8181C347.577 32.0564 339.636 24.1136 329.873 24.1136C320.112 24.1136 312.168 32.0564 312.168 41.8181C312.168 45.0412 313.064 48.2155 314.759 50.9976C315.052 51.4787 315.135 52.0587 314.99 52.6027L314.867 53.0587C314.237 55.4118 316.39 57.5651 318.743 56.9345L319.246 56.7998ZM317.26 61.6044C312.998 62.7452 309.039 58.8622 310.181 54.6014C310.566 53.1671 310.346 51.6528 309.767 50.2855C308.633 47.6078 308.043 44.7305 308.043 41.8181C308.043 29.7815 317.835 19.9873 329.873 19.9873C341.911 19.9873 351.705 29.7815 351.705 41.8181C351.705 53.8559 341.911 63.6501 329.873 63.6501C327.025 63.6501 324.204 63.0827 321.573 61.9945C320.208 61.4297 318.687 61.2222 317.26 61.6044Z" fill="white"/>
<path fill-rule="evenodd" clip-rule="evenodd" d="M337.993 44.8553C337.094 44.3169 335.926 43.7172 334.866 44.1495C334.056 44.483 333.537 45.7547 333.01 46.4031C332.74 46.7367 332.418 46.7879 332.003 46.6218C328.955 45.4062 326.619 43.3712 324.936 40.5678C324.651 40.1319 324.702 39.7883 325.046 39.3848C325.554 38.7864 326.193 38.1068 326.33 37.2998C326.468 36.494 326.089 35.5521 325.756 34.8325C325.33 33.9155 324.854 32.6076 323.934 32.0879C323.09 31.6107 321.977 31.878 321.224 32.4901C319.925 33.5495 319.298 35.2061 319.317 36.8501C319.323 37.3173 319.381 37.7833 319.489 38.233C319.752 39.3161 320.251 40.3292 320.816 41.2899C321.241 42.0157 321.703 42.7203 322.201 43.3974C323.832 45.6124 325.86 47.5375 328.209 48.9766C329.383 49.6949 330.646 50.3258 331.956 50.7581C333.423 51.2428 334.731 51.7475 336.317 51.4464C337.976 51.1316 339.614 50.1047 340.272 48.5056C340.467 48.0309 340.564 47.5037 340.456 47.004C340.229 45.9696 338.83 45.355 337.993 44.8553Z" fill="white"/>
</svg>
